<svg xmlns="http://www.w3.org/2000/svg" xmlns:xlink="http://www.w3.org/1999/xlink" version="1.1" xml:space="preserve" viewBox="108.32 133.44 399.77 376.18">
<desc>Created with Fabric.js 4.6.0</desc>
<defs>
</defs>
<g transform="matrix(1.06 0 0 1.06 320 321.53)" id="4S3L8JJsllcFCz3Wtn7N8">
<path style="stroke: rgb(200,104,166); stroke-width: 0; stroke-dasharray: none; stroke-linecap: butt; stroke-dashoffset: 0; stroke-linejoin: miter; stroke-miterlimit: 4; fill: rgb(36,36,36); fill-rule: nonzero; opacity: 1;" vector-effect="non-scaling-stroke" transform=" translate(0, 0)" d="M -177.44361 -102.16066 C -177.44361 -143.73828 -143.73829 -177.44360999999998 -102.16066000000001 -177.44360999999998 L 102.16065999999998 -177.44360999999998 L 102.16065999999998 -177.44360999999998 C 143.73827999999997 -177.44360999999998 177.44360999999998 -143.73828999999998 177.44360999999998 -102.16065999999998 L 177.44360999999998 102.16066000000001 L 177.44360999999998 102.16066000000001 C 177.44360999999998 143.73828 143.73828999999998 177.44361 102.16065999999998 177.44361 L -102.16066000000001 177.44361 L -102.16066000000001 177.44361 C -143.73828 177.44361 -177.44361 143.73829 -177.44361 102.16066000000001 z" stroke-linecap="round"/>
</g>
<g transform="matrix(1 0 0 1 261.67 261.85)" id="8uLUPkXppOfG9IJcXzgL1">
<path style="stroke: rgb(0,0,0); stroke-width: 0; stroke-dasharray: none; stroke-linecap: butt; stroke-dashoffset: 0; stroke-linejoin: miter; stroke-miterlimit: 4; fill: rgb(255,255,255); fill-rule: nonzero; opacity: 1;" vector-effect="non-scaling-stroke" transform=" translate(0, 0)" d="M -37.68116 -38.22464 L 37.68116 38.22464 L 37.68116 -38.22464 z" stroke-linecap="round"/>
</g>
<g transform="matrix(1 0 0 1 361.85 238.3)" id="5vyK-TXdG5ki8I2OI_icq">
<path style="stroke: rgb(0,0,0); stroke-width: 0; stroke-dasharray: none; stroke-linecap: butt; stroke-dashoffset: 0; stroke-linejoin: miter; stroke-miterlimit: 4; fill: rgb(255,255,255); fill-rule: nonzero; opacity: 1;" vector-effect="non-scaling-stroke" transform=" translate(0, 0)" d="M -24.81884 -12.13768 L 0.18115999999999843 12.13768 L 24.818839999999998 -12.13768 z" stroke-linecap="round"/>
</g>
<g transform="matrix(1 0 0 1 348.17 266.74)" id="J0iGYiyxbDNEK7Qu-vU7s">
<path style="stroke: rgb(0,0,0); stroke-width: 0; stroke-dasharray: none; stroke-linecap: butt; stroke-dashoffset: 0; stroke-linejoin: miter; stroke-miterlimit: 4; fill: rgb(255,255,255); fill-rule: nonzero; opacity: 1;" vector-effect="non-scaling-stroke" transform=" translate(0, 0)" d="M -13.67754 -38.76812 L 13.67753 -13.405800000000003 L 13.67753 38.76810999999999 L -11.64131 13.405789999999993 z" stroke-linecap="round"/>
</g>
<g transform="matrix(1 0 0 1 333.95 307.68)" id="HTjwgvLI_drvlUD6tvKEV">
<path style="stroke: rgb(0,0,0); stroke-width: 0; stroke-dasharray: none; stroke-linecap: butt; stroke-dashoffset: 0; stroke-linejoin: miter; stroke-miterlimit: 4; fill: rgb(255,255,255); fill-rule: nonzero; opacity: 1;" vector-effect="non-scaling-stroke" transform=" translate(0, 0)" d="M 0.04348 -25.72464 L 25.9058 0.3623200000000004 L 0.04347999999999885 25.72464 L -25.905800000000003 0.3623200000000004 z" stroke-linecap="round"/>
</g>
<g transform="matrix(1 0 0 1 300 321.09)" id="cXMHOS2o4D3P9mCNYXpi9">
<path style="stroke: rgb(0,0,0); stroke-width: 0; stroke-dasharray: none; stroke-linecap: butt; stroke-dashoffset: 0; stroke-linejoin: miter; stroke-miterlimit: 4; fill: rgb(255,255,255); fill-rule: nonzero; opacity: 1;" vector-effect="non-scaling-stroke" transform=" translate(0, 0)" d="M -0.1558 -18.11594 L 36.52536 18.11594 L -36.52536 18.11594 z" stroke-linecap="round"/>
</g>
<g transform="matrix(1 0 0 1 319.03 359.49)" id="VmPGUDBk2ntufO9eirpc0">
<path style="stroke: rgb(0,0,0); stroke-width: 0; stroke-dasharray: none; stroke-linecap: butt; stroke-dashoffset: 0; stroke-linejoin: miter; stroke-miterlimit: 4; fill: rgb(255,255,255); fill-rule: nonzero; opacity: 1;" vector-effect="non-scaling-stroke" transform=" translate(0, 0)" d="M -17.50362 -17.75362 L -17.50362 17.753629999999998 L 17.503629999999998 -17.75362 z" stroke-linecap="round"/>
</g>
<g transform="matrix(1 0 0 1 378.7 378.81)" id="1h3oVHDx9xuOnBUDvfbiw">
<path style="stroke: rgb(0,0,0); stroke-width: 0; stroke-dasharray: none; stroke-linecap: butt; stroke-dashoffset: 0; stroke-linejoin: miter; stroke-miterlimit: 4; fill: rgb(255,255,255); fill-rule: nonzero; opacity: 1;" vector-effect="non-scaling-stroke" transform=" translate(0, 0)" d="M -37.31884 -37.56884 L 37.31884 -37.56884 L 37.31884 37.56884 z" stroke-linecap="round"/>
</g>
<g transform="matrix(1 0 0 1 108.82 289.76)" id="fAHpPR_MhW60vZ6_bIXHm">
<path style="stroke: rgb(0,0,0); stroke-width: 1; stroke-dasharray: none; stroke-linecap: round; stroke-dashoffset: 0; stroke-linejoin: round; stroke-miterlimit: 10; fill: none; fill-rule: nonzero; opacity: 1;" vector-effect="non-scaling-stroke" transform=" translate(-108.82, -289.76)" d="M 108.82383227407047 289.7590386845816 L 108.82583227407048 289.7590386845816" stroke-linecap="round"/>
</g>
<g transform="matrix(1 0 0 1 153.19 150.66)" id="m6xQyKxjHoul3uZ3XxhtE">
<path style="stroke: rgb(0,0,0); stroke-width: 1; stroke-dasharray: none; stroke-linecap: round; stroke-dashoffset: 0; stroke-linejoin: round; stroke-miterlimit: 10; fill: none; fill-rule: nonzero; opacity: 1;" vector-effect="non-scaling-stroke" transform=" translate(-153.19, -150.66)" d="M 153.18473452970954 150.66129432367939 L 153.18673452970955 150.66129432367939" stroke-linecap="round"/>
</g>
<g transform="matrix(1 0 0 1 153.94 154.42)" id="9IhQ6ZdcJx64AwUJaB6Ln">
<path style="stroke: rgb(0,0,0); stroke-width: 1; stroke-dasharray: none; stroke-linecap: round; stroke-dashoffset: 0; stroke-linejoin: round; stroke-miterlimit: 10; fill: none; fill-rule: nonzero; opacity: 1;" vector-effect="non-scaling-stroke" transform=" translate(-153.94, -154.42)" d="M 153.9366142289577 154.42069281991996 L 153.9386142289577 154.42069281991996" stroke-linecap="round"/>
</g>
</svg>