<svg xmlns="http://www.w3.org/2000/svg" xmlns:xlink="http://www.w3.org/1999/xlink" version="1.1" xml:space="preserve" viewBox="120.12 148.63 307.7 266.22">
<desc>Created with Fabric.js 4.6.0</desc>
<defs>
</defs>
<g transform="matrix(1 0 0 1 273.47 260.32)" id="Ua5eHuQbn4qC4f3eACvCR">
<path style="stroke: rgb(0,0,0); stroke-width: 0; stroke-dasharray: none; stroke-linecap: butt; stroke-dashoffset: 0; stroke-linejoin: miter; stroke-miterlimit: 4; fill: rgb(255,255,255); fill-rule: nonzero; opacity: 1;" vector-effect="non-scaling-stroke" transform=" translate(0, 0)" d="M -37.68116 -38.22464 L 37.68116 38.22464 L 37.68116 -38.22464 z" stroke-linecap="round"/>
</g>
<g transform="matrix(1 0 0 1 373.65 236.77)" id="xFfmjHfbw60iXhJ70fSZq">
<path style="stroke: rgb(0,0,0); stroke-width: 0; stroke-dasharray: none; stroke-linecap: butt; stroke-dashoffset: 0; stroke-linejoin: miter; stroke-miterlimit: 4; fill: rgb(255,255,255); fill-rule: nonzero; opacity: 1;" vector-effect="non-scaling-stroke" transform=" translate(0, 0)" d="M -24.81884 -12.13768 L 0.18115999999999843 12.13768 L 24.818839999999998 -12.13768 z" stroke-linecap="round"/>
</g>
<g transform="matrix(1 0 0 1 359.96 265.21)" id="hotk-o21opZ2qIJ4spBkn">
<path style="stroke: rgb(0,0,0); stroke-width: 0; stroke-dasharray: none; stroke-linecap: butt; stroke-dashoffset: 0; stroke-linejoin: miter; stroke-miterlimit: 4; fill: rgb(255,255,255); fill-rule: nonzero; opacity: 1;" vector-effect="non-scaling-stroke" transform=" translate(0, 0)" d="M -13.67754 -38.76812 L 13.67753 -13.405800000000003 L 13.67753 38.76810999999999 L -11.64131 13.405789999999993 z" stroke-linecap="round"/>
</g>
<g transform="matrix(1 0 0 1 345.75 306.15)" id="zltYZ_QFDGBhFcmWrVE2M">
<path style="stroke: rgb(0,0,0); stroke-width: 0; stroke-dasharray: none; stroke-linecap: butt; stroke-dashoffset: 0; stroke-linejoin: miter; stroke-miterlimit: 4; fill: rgb(255,255,255); fill-rule: nonzero; opacity: 1;" vector-effect="non-scaling-stroke" transform=" translate(0, 0)" d="M 0.04348 -25.72464 L 25.9058 0.3623200000000004 L 0.04347999999999885 25.72464 L -25.905800000000003 0.3623200000000004 z" stroke-linecap="round"/>
</g>
<g transform="matrix(1 0 0 1 311.8 319.56)" id="dHNodr6sj1gmkyZZodz2v">
<path style="stroke: rgb(0,0,0); stroke-width: 0; stroke-dasharray: none; stroke-linecap: butt; stroke-dashoffset: 0; stroke-linejoin: miter; stroke-miterlimit: 4; fill: rgb(255,255,255); fill-rule: nonzero; opacity: 1;" vector-effect="non-scaling-stroke" transform=" translate(0, 0)" d="M -0.1558 -18.11594 L 36.52536 18.11594 L -36.52536 18.11594 z" stroke-linecap="round"/>
</g>
<g transform="matrix(1 0 0 1 330.83 357.96)" id="s4cW2wzOFTo6bfrEOI3hN">
<path style="stroke: rgb(0,0,0); stroke-width: 0; stroke-dasharray: none; stroke-linecap: butt; stroke-dashoffset: 0; stroke-linejoin: miter; stroke-miterlimit: 4; fill: rgb(255,255,255); fill-rule: nonzero; opacity: 1;" vector-effect="non-scaling-stroke" transform=" translate(0, 0)" d="M -17.50362 -17.75362 L -17.50362 17.753629999999998 L 17.503629999999998 -17.75362 z" stroke-linecap="round"/>
</g>
<g transform="matrix(1 0 0 1 390.5 377.28)" id="9ASGK7hD1Rit8Yc5E4ZVy">
<path style="stroke: rgb(0,0,0); stroke-width: 0; stroke-dasharray: none; stroke-linecap: butt; stroke-dashoffset: 0; stroke-linejoin: miter; stroke-miterlimit: 4; fill: rgb(255,255,255); fill-rule: nonzero; opacity: 1;" vector-effect="non-scaling-stroke" transform=" translate(0, 0)" d="M -37.31884 -37.56884 L 37.31884 -37.56884 L 37.31884 37.56884 z" stroke-linecap="round"/>
</g>
<g transform="matrix(1 0 0 1 120.62 288.23)" id="4ue7ZfmzqrMnW6cUuhR4e">
<path style="stroke: rgb(0,0,0); stroke-width: 1; stroke-dasharray: none; stroke-linecap: round; stroke-dashoffset: 0; stroke-linejoin: round; stroke-miterlimit: 10; fill: none; fill-rule: nonzero; opacity: 1;" vector-effect="non-scaling-stroke" transform=" translate(-108.82, -289.76)" d="M 108.82383227407047 289.7590386845816 L 108.82583227407048 289.7590386845816" stroke-linecap="round"/>
</g>
<g transform="matrix(1 0 0 1 164.98 149.13)" id="4b9PM-RpSutSEq_BWmANj">
<path style="stroke: rgb(0,0,0); stroke-width: 1; stroke-dasharray: none; stroke-linecap: round; stroke-dashoffset: 0; stroke-linejoin: round; stroke-miterlimit: 10; fill: none; fill-rule: nonzero; opacity: 1;" vector-effect="non-scaling-stroke" transform=" translate(-153.19, -150.66)" d="M 153.18473452970954 150.66129432367939 L 153.18673452970955 150.66129432367939" stroke-linecap="round"/>
</g>
<g transform="matrix(1 0 0 1 165.73 152.89)" id="Dseo05mbcIt39F7UlrUtR">
<path style="stroke: rgb(0,0,0); stroke-width: 1; stroke-dasharray: none; stroke-linecap: round; stroke-dashoffset: 0; stroke-linejoin: round; stroke-miterlimit: 10; fill: none; fill-rule: nonzero; opacity: 1;" vector-effect="non-scaling-stroke" transform=" translate(-153.94, -154.42)" d="M 153.9366142289577 154.42069281991996 L 153.9386142289577 154.42069281991996" stroke-linecap="round"/>
</g>
</svg>